<svg xmlns="http://www.w3.org/2000/svg" width="64" height="64" viewBox="0 0 64 64">
  <g fill="none" fill-rule="evenodd">
    <circle cx="32" cy="32" r="32" fill="#FB7299"/>
    <path fill="#FFF" d="M37.1562151,34.7922925 C35.9302366,34.7922925 34.968,33.8276473 34.968,32.6016688 C34.968,31.3756903 35.9302366,30.4122495 37.1562151,30.4122495 C38.3833978,30.4122495 39.3456344,31.3756903 39.3456344,32.6016688 C39.3456344,33.8276473 38.3833978,34.7922925 37.1562151,34.7922925 L37.1562151,34.7922925 Z M26.1212043,36.6300559 C25.6828387,37.0696258 24.9819355,37.0696258 24.5447742,36.6300559 C24.1064086,36.1928946 24.1064086,35.4919914 24.5447742,35.0548301 L26.5583656,33.0400344 L24.4568602,31.4636043 C23.9317849,31.1131527 23.843871,30.4122495 24.1943226,29.9750882 C24.5447742,29.4488086 25.2444731,29.3608946 25.6828387,29.7113462 L29.0994409,32.1645075 C29.5366022,32.5149591 29.6245161,33.1279484 29.1861505,33.4771957 L26.1212043,36.6300559 Z M50.2939355,27.0847656 C50.4697634,26.2959484 50.0313978,25.6829591 49.7688602,25.4204215 C48.4549677,23.5802495 46.0909247,21.4787441 43.9882151,20.3406796 C42.8501505,19.726486 41.6229677,19.2893247 40.3969892,19.0267871 C39.1710108,18.6763355 37.8571183,18.5005075 36.5432258,18.5005075 C35.8423226,18.3258839 33.5661935,14.1216688 33.039914,13.5953892 C32.8652903,13.3328516 32.6027527,13.3328516 32.2523011,13.3328516 C30.9384086,13.6833032 29.7112258,14.0337548 28.3985376,14.6467441 C27.2592688,15.2597333 26.1212043,15.9606366 25.0698495,16.9240774 C24.1064086,17.7128946 23.2308817,18.7630452 22.3541505,19.902314 C21.6532473,21.0415828 20.9535484,22.7926366 20.4272688,23.7560774 C19.1145806,24.3690667 15.2596129,25.8587871 15.2596129,25.8587871 C15.2596129,25.8587871 14.2973763,26.2959484 13.8590108,26.734314 C13.4218495,27.1714753 13.3339355,28.1349161 13.3339355,28.4853677 C13.3339355,29.7113462 13.4218495,30.9373247 13.6831828,32.2524215 C14.0336344,33.4771957 14.2973763,34.6164645 14.8224516,35.7557333 C15.3475269,36.8937978 15.9605161,37.9451527 16.7493333,38.9953032 C17.4502366,39.9587441 19.5517419,41.9735398 19.5517419,41.9735398 C19.5517419,41.9735398 19.3771183,45.214314 19.8154839,47.2291097 C19.9021935,47.8420989 20.1647312,48.2792602 20.3405591,48.5430022 C21.304,49.506443 23.9317849,50.2073462 25.2444731,50.2073462 C28.3985376,50.3819699 30.675871,49.9436043 32.4269247,49.3306151 C33.3903656,48.9801634 35.2293333,47.9288086 35.6676989,47.666271 L35.8423226,47.666271 L40.9232688,49.5931527 C41.1858065,49.6810667 41.8867097,49.5931527 42.1492473,49.418529 C42.4117849,49.2439054 43.0247742,48.4550882 43.2006022,48.1925505 C44.251957,47.054486 45.8271828,43.1995183 46.0909247,41.5363785 C46.2655484,40.3091957 46.440172,39.1711312 46.440172,37.9451527 C46.3534624,36.7191742 46.2655484,35.4919914 45.9150968,34.3539269 L45.9150968,33.8276473 C46.0909247,33.5651097 49.9434839,28.6611957 50.2939355,27.0847656 L50.2939355,27.0847656 Z"/>
  </g>
</svg>
